{
	"asset":{
		"generator":"Khronos glTF Blender I/O v5.0.21",
		"version":"2.0"
	},
	"scene":0,
	"scenes":[
		{
			"name":"Scene",
			"nodes":[
				0,
				1,
				2,
				3,
				4,
				5
			]
		}
	],
	"nodes":[
		{
			"mesh":0,
			"name":"Cube",
			"rotation":[
				0.3897742033004761,
				0.06674258410930634,
				0.26496514678001404,
				0.879440188407898
			],
			"scale":[
				0.5373407602310181,
				0.9118812680244446,
				0.9470247030258179
			],
			"translation":[
				-2.680260181427002,
				2.9878878593444824,
				1.2294660806655884
			]
		},
		{
			"mesh":1,
			"name":"\u7acb\u65b9\u4f53",
			"translation":[
				1.2139699459075928,
				1.7956552505493164,
				-4.05860710144043
			]
		},
		{
			"mesh":2,
			"name":"\u7403\u4f53",
			"scale":[
				0.44421809911727905,
				4.076502799987793,
				1
			],
			"translation":[
				-1.1059601306915283,
				1.394611120223999,
				3.329310178756714
			]
		},
		{
			"mesh":3,
			"name":"\u73af\u4f53",
			"scale":[
				43.817596435546875,
				43.817596435546875,
				43.817596435546875
			]
		},
		{
			"mesh":4,
			"name":"\u82cf\u73ca\u5a1c",
			"rotation":[
				-0.3154526650905609,
				0,
				0,
				0.9489413499832153
			],
			"translation":[
				-4.641268253326416,
				2.236823081970215,
				-2.9676666259765625
			]
		},
		{
			"mesh":5,
			"name":"\u5e73\u9762",
			"scale":[
				64.71243286132812,
				23.933088302612305,
				59.20767593383789
			],
			"translation":[
				1.4517107009887695,
				-4.4594011306762695,
				-0.6242256164550781
			]
		}
	],
	"materials":[
		{
			"doubleSided":true,
			"name":"\u6750\u8d28.003",
			"pbrMetallicRoughness":{
				"baseColorFactor":[
					0.07145921140909195,
					0.36254414916038513,
					0.8000074625015259,
					1
				],
				"metallicFactor":0,
				"roughnessFactor":0.5
			}
		},
		{
			"alphaMode":"BLEND",
			"doubleSided":true,
			"name":"\u6750\u8d28.004",
			"pbrMetallicRoughness":{
				"metallicFactor":0,
				"roughnessFactor":0.5
			}
		},
		{
			"alphaMode":"BLEND",
			"doubleSided":true,
			"name":"\u6750\u8d28",
			"pbrMetallicRoughness":{
				"baseColorFactor":[
					0.2657776474952698,
					0.296993613243103,
					0.8000229597091675,
					0.5256797671318054
				],
				"metallicFactor":0.791540801525116,
				"roughnessFactor":0.10876133292913437
			}
		},
		{
			"doubleSided":true,
			"name":"\u6750\u8d28.001",
			"pbrMetallicRoughness":{
				"baseColorFactor":[
					0.008792019449174404,
					0,
					0.8000074625015259,
					1
				],
				"metallicFactor":0,
				"roughnessFactor":0.5
			}
		},
		{
			"doubleSided":true,
			"name":"\u6750\u8d28.002",
			"pbrMetallicRoughness":{
				"metallicFactor":0,
				"roughnessFactor":0.5
			}
		}
	],
	"meshes":[
		{
			"name":"Cube",
			"primitives":[
				{
					"attributes":{
						"POSITION":0,
						"NORMAL":1,
						"TEXCOORD_0":2
					},
					"indices":3,
					"material":0
				}
			]
		},
		{
			"name":"\u7acb\u65b9\u4f53",
			"primitives":[
				{
					"attributes":{
						"POSITION":4,
						"NORMAL":5,
						"TEXCOORD_0":6
					},
					"indices":7,
					"material":1
				}
			]
		},
		{
			"name":"\u7403\u4f53",
			"primitives":[
				{
					"attributes":{
						"POSITION":8,
						"NORMAL":9,
						"TEXCOORD_0":10
					},
					"indices":11,
					"material":2
				}
			]
		},
		{
			"name":"\u73af\u4f53",
			"primitives":[
				{
					"attributes":{
						"POSITION":12,
						"NORMAL":13,
						"TEXCOORD_0":14
					},
					"indices":15,
					"material":3
				}
			]
		},
		{
			"name":"\u82cf\u73ca\u5a1c",
			"primitives":[
				{
					"attributes":{
						"POSITION":16,
						"NORMAL":17,
						"TEXCOORD_0":18
					},
					"indices":19
				}
			]
		},
		{
			"name":"\u5e73\u9762",
			"primitives":[
				{
					"attributes":{
						"POSITION":20,
						"NORMAL":21,
						"TEXCOORD_0":22
					},
					"indices":23,
					"material":4
				}
			]
		}
	],
	"accessors":[
		{
			"bufferView":0,
			"componentType":5126,
			"count":24,
			"max":[
				1,
				1,
				1
			],
			"min":[
				-1,
				-1,
				-1
			],
			"type":"VEC3"
		},
		{
			"bufferView":1,
			"componentType":5126,
			"count":24,
			"type":"VEC3"
		},
		{
			"bufferView":2,
			"componentType":5126,
			"count":24,
			"type":"VEC2"
		},
		{
			"bufferView":3,
			"componentType":5123,
			"count":36,
			"type":"SCALAR"
		},
		{
			"bufferView":4,
			"componentType":5126,
			"count":24,
			"max":[
				1,
				1,
				1
			],
			"min":[
				-1,
				-1,
				-1
			],
			"type":"VEC3"
		},
		{
			"bufferView":5,
			"componentType":5126,
			"count":24,
			"type":"VEC3"
		},
		{
			"bufferView":6,
			"componentType":5126,
			"count":24,
			"type":"VEC2"
		},
		{
			"bufferView":7,
			"componentType":5123,
			"count":36,
			"type":"SCALAR"
		},
		{
			"bufferView":8,
			"componentType":5126,
			"count":1984,
			"max":[
				0.9999997019767761,
				1,
				0.9999993443489075
			],
			"min":[
				-0.9999990463256836,
				-1,
				-1
			],
			"type":"VEC3"
		},
		{
			"bufferView":9,
			"componentType":5126,
			"count":1984,
			"type":"VEC3"
		},
		{
			"bufferView":10,
			"componentType":5126,
			"count":1984,
			"type":"VEC2"
		},
		{
			"bufferView":11,
			"componentType":5123,
			"count":2880,
			"type":"SCALAR"
		},
		{
			"bufferView":12,
			"componentType":5126,
			"count":2304,
			"max":[
				1.25,
				0.25,
				1.25
			],
			"min":[
				-1.25,
				-0.25,
				-1.25
			],
			"type":"VEC3"
		},
		{
			"bufferView":13,
			"componentType":5126,
			"count":2304,
			"type":"VEC3"
		},
		{
			"bufferView":14,
			"componentType":5126,
			"count":2304,
			"type":"VEC2"
		},
		{
			"bufferView":15,
			"componentType":5123,
			"count":3456,
			"type":"SCALAR"
		},
		{
			"bufferView":16,
			"componentType":5126,
			"count":1966,
			"max":[
				1.3671875,
				0.984375,
				0.8515625
			],
			"min":[
				-1.3671875,
				-0.984375,
				-0.8515625
			],
			"type":"VEC3"
		},
		{
			"bufferView":17,
			"componentType":5126,
			"count":1966,
			"type":"VEC3"
		},
		{
			"bufferView":18,
			"componentType":5126,
			"count":1966,
			"type":"VEC2"
		},
		{
			"bufferView":19,
			"componentType":5123,
			"count":2904,
			"type":"SCALAR"
		},
		{
			"bufferView":20,
			"componentType":5126,
			"count":4,
			"max":[
				1,
				0,
				1
			],
			"min":[
				-1,
				0,
				-1
			],
			"type":"VEC3"
		},
		{
			"bufferView":21,
			"componentType":5126,
			"count":4,
			"type":"VEC3"
		},
		{
			"bufferView":22,
			"componentType":5126,
			"count":4,
			"type":"VEC2"
		},
		{
			"bufferView":23,
			"componentType":5123,
			"count":6,
			"type":"SCALAR"
		}
	],
	"bufferViews":[
		{
			"buffer":0,
			"byteLength":288,
			"byteOffset":0,
			"target":34962
		},
		{
			"buffer":0,
			"byteLength":288,
			"byteOffset":288,
			"target":34962
		},
		{
			"buffer":0,
			"byteLength":192,
			"byteOffset":576,
			"target":34962
		},
		{
			"buffer":0,
			"byteLength":72,
			"byteOffset":768,
			"target":34963
		},
		{
			"buffer":0,
			"byteLength":288,
			"byteOffset":840,
			"target":34962
		},
		{
			"buffer":0,
			"byteLength":288,
			"byteOffset":1128,
			"target":34962
		},
		{
			"buffer":0,
			"byteLength":192,
			"byteOffset":1416,
			"target":34962
		},
		{
			"buffer":0,
			"byteLength":72,
			"byteOffset":1608,
			"target":34963
		},
		{
			"buffer":0,
			"byteLength":23808,
			"byteOffset":1680,
			"target":34962
		},
		{
			"buffer":0,
			"byteLength":23808,
			"byteOffset":25488,
			"target":34962
		},
		{
			"buffer":0,
			"byteLength":15872,
			"byteOffset":49296,
			"target":34962
		},
		{
			"buffer":0,
			"byteLength":5760,
			"byteOffset":65168,
			"target":34963
		},
		{
			"buffer":0,
			"byteLength":27648,
			"byteOffset":70928,
			"target":34962
		},
		{
			"buffer":0,
			"byteLength":27648,
			"byteOffset":98576,
			"target":34962
		},
		{
			"buffer":0,
			"byteLength":18432,
			"byteOffset":126224,
			"target":34962
		},
		{
			"buffer":0,
			"byteLength":6912,
			"byteOffset":144656,
			"target":34963
		},
		{
			"buffer":0,
			"byteLength":23592,
			"byteOffset":151568,
			"target":34962
		},
		{
			"buffer":0,
			"byteLength":23592,
			"byteOffset":175160,
			"target":34962
		},
		{
			"buffer":0,
			"byteLength":15728,
			"byteOffset":198752,
			"target":34962
		},
		{
			"buffer":0,
			"byteLength":5808,
			"byteOffset":214480,
			"target":34963
		},
		{
			"buffer":0,
			"byteLength":48,
			"byteOffset":220288,
			"target":34962
		},
		{
			"buffer":0,
			"byteLength":48,
			"byteOffset":220336,
			"target":34962
		},
		{
			"buffer":0,
			"byteLength":32,
			"byteOffset":220384,
			"target":34962
		},
		{
			"buffer":0,
			"byteLength":12,
			"byteOffset":220416,
			"target":34963
		}
	],
	"buffers":[
		{
			"byteLength":220428,
			"uri":"cj1.bin"
		}
	]
}
